General

Format                           : Matroska
File size                        : 1.45 GiB
Duration                         : 2h 22mn
Overall bit rate                 : 1 464 Kbps
Encoded date                     : UTC 2010-12-17 07:07:52
Writing application              : mkvmerge v4.0.0 ('The Stars were mine') built on Jun  6 2010 16:18:42
Writing library                  : libebml v1.0.0 + libmatroska v1.0.0

Source        :             1080p @ Refined --Thank You

Audio from Telugu VCD (Thanks To -PRANEETH-)

Encoded by RajMahal @ Team ICF


Video

ID                               : 1
Format                           : AVC
Format/Info                      : Advanced Video Codec
Format profile                   : High@L4.1
Format settings, CABAC           : Yes
Format settings, ReFrames        : 3 frames
Codec ID                         : V_MPEG4/ISO/AVC
Duration                         : 2h 22mn
Bit rate mode                    : Variable
Bit rate                         : 1 273 Kbps
Maximum bit rate                 : 5 000 Kbps
Width                            : 1 280 pixels
Height                           : 544 pixels
Display aspect ratio             : 2.35:1
Frame rate                       : 25.000 fps
Color space                      : YUV
Chroma subsampling               : 4:2:0
Bit depth                        : 8 bits
Scan type                        : Progressive
Bits/(Pixel*Frame)               : 0.073
Stream size                      : 1.23 GiB (85%)
Writing library                  : x264 core 98 r1649 20cbe10

Audio Language : Telugu

ID                               : 2
Format                           : AC-3
Format/Info                      : Audio Coding 3
Mode extension                   : CM (complete main)
Codec ID                         : A_AC3
Duration                         : 2h 22mn
Bit rate mode                    : Constant
Bit rate                         : 192 Kbps
Channel(s)                       : 6 channels
Channel positions                : Front: L C R, Side: L R, LFE
Sampling rate                    : 48.0 KHz
Bit depth                        : 16 bits
Compression mode                 : Lossy
Stream size                      : 195 MiB (13%)


ScreemShots :

 
http://img405.imageshack.us/img405/512/vlcsnap2010121708h20m06.png 
http://img714.imageshack.us/img714/686/vlcsnap2010121708h20m49.png 
http://img338.imageshack.us/img338/7866/vlcsnap2010121708h21m03.png 
http://img441.imageshack.us/img441/6097/vlcsnap2010121708h21m21.png 
http://img3.imageshack.us/img3/4080/vlcsnap2010121708h21m55.png 
http://img715.imageshack.us/img715/4164/vlcsnap2010121708h21m58.png 
http://img819.imageshack.us/img819/1296/vlcsnap2010121708h22m30.png 
http://img30.imageshack.us/img30/539/vlcsnap2010121708h22m33.png 
http://img510.imageshack.us/img510/8563/vlcsnap2010121708h22m39.png 
http://img692.imageshack.us/img692/4403/vlcsnap2010121708h22m59.png 
http://img535.imageshack.us/img535/7707/vlcsnap2010121708h23m46.png 
http://img560.imageshack.us/img560/6333/vlcsnap2010121708h23m51.png 
http://img171.imageshack.us/img171/5570/vlcsnap2010121708h24m01.png 
http://img715.imageshack.us/img715/3131/vlcsnap2010121708h24m15.png 
http://img28.imageshack.us/img28/685/vlcsnap2010121708h24m37.png
